<svg xmlns="http://www.w3.org/2000/svg" xmlns:xlink="http://www.w3.org/1999/xlink" width="1024" height="1024" viewBox="0 0 1024 1024"><defs><clipPath id="b"><rect width="1024" height="1024"/></clipPath></defs><g id="a" clip-path="url(#b)"><rect width="1024" height="1024" fill="#fff"/><path d="M600,200l-50-50,50-30L800,0V600L600,720Zm-275,0-50-50,50-30L525,0V600L325,720ZM50,200,0,150l50-30L250,0V600L50,720ZM800,520l50,50-50,30Zm-275,0,50,50-50,30Zm-275,0,50,50-50,30ZM850,270l50-30V540l-50,30Z" transform="translate(62 152)"/></g></svg>